<svg id="Layer_1" data-name="Layer 1" xmlns="http://www.w3.org/2000/svg" viewBox="0 0 4025.18 2147.22"><defs><style>.cls-1,.cls-3,.cls-4,.cls-5{font-size:1234.74px;}.cls-1,.cls-10,.cls-12,.cls-14,.cls-16,.cls-18,.cls-2,.cls-4,.cls-6,.cls-8{fill:#8166cd;}.cls-1,.cls-10,.cls-4,.cls-8{stroke:#000;}.cls-1,.cls-10,.cls-11,.cls-13,.cls-15,.cls-17,.cls-18,.cls-19,.cls-3,.cls-4,.cls-5,.cls-7,.cls-8,.cls-9{stroke-miterlimit:10;}.cls-1,.cls-10,.cls-11,.cls-12,.cls-13,.cls-14,.cls-15,.cls-16,.cls-17,.cls-3,.cls-4,.cls-5,.cls-6,.cls-7,.cls-8,.cls-9{font-family:Raleway-Black, Raleway;font-weight:800;}.cls-1,.cls-3{letter-spacing:-0.02em;}.cls-11,.cls-13,.cls-15,.cls-17,.cls-19,.cls-20,.cls-3,.cls-5,.cls-7,.cls-9{fill:#fff;}.cls-11,.cls-13,.cls-15,.cls-17,.cls-3,.cls-5,.cls-7,.cls-9{stroke:#626894;stroke-width:9px;}.cls-4,.cls-5{letter-spacing:-0.02em;}.cls-6{font-size:1254.19px;letter-spacing:0.01em;}.cls-7{font-size:1234.74px;letter-spacing:0.01em;}.cls-8,.cls-9{font-size:783.16px;letter-spacing:0.01em;}.cls-10,.cls-11,.cls-13{font-size:762.91px;}.cls-10,.cls-11{letter-spacing:0em;}.cls-12{font-size:774.92px;letter-spacing:0.01em;}.cls-13{letter-spacing:0.01em;}.cls-14,.cls-15{font-size:770.41px;letter-spacing:-0.02em;}.cls-16,.cls-17{font-size:726.55px;}.cls-18{stroke:#1d1d1d;}.cls-19{stroke:#838bc5;stroke-width:13px;}</style></defs><title>octa logo</title><text class="cls-1" transform="translate(3065.96 1370.19)">A</text><polygon class="cls-2" points="3977.25 1317.65 3841.45 1405.43 3841.45 1317.65 3977.25 1317.65"/><polygon class="cls-2" points="3447.81 432.44 3362.17 484.63 3413.28 522.36 3453.96 507.11 3459.85 438.86 3447.81 432.44"/><polygon class="cls-2" points="3309.17 1369.57 3395.19 1318.06 3309.17 1318.06 3309.17 1369.57"/><text class="cls-3" transform="translate(3151.94 1318.07)">A</text><text class="cls-4" transform="translate(2535.23 1369.57)">T</text><polygon class="cls-2" points="2624.23 432.02 2538.59 484.21 2589.71 521.95 2630.39 506.69 2636.28 438.44 2624.23 432.02"/><polygon class="cls-2" points="3302.29 711.95 3387.93 659.76 3336.81 622.02 3296.13 637.28 3290.24 705.52 3302.29 711.95"/><polygon class="cls-2" points="3050.57 1378.64 3136.22 1326.45 3085.1 1288.72 3044.42 1303.97 3038.53 1372.22 3050.57 1378.64"/><text class="cls-5" transform="translate(2620.88 1317.65)">T</text><text class="cls-6" transform="matrix(1, 0, 0, 1, 1709.07, 1386.82)">C</text><text class="cls-7" transform="matrix(1, 0, 0, 1, 1795.1, 1312.22)">C</text><text class="cls-8" transform="matrix(1, 0, 0, 1, 3539.51, 1927.27)">S</text><text class="cls-9" transform="matrix(1, 0, 0, 1, 3565.69, 1877.22)">S</text><text class="cls-10" transform="matrix(1, 0, 0, 1, 3004.22, 1915.93)">K</text><polygon class="cls-2" points="3044.27 1368.13 3117.96 1318.06 3126.06 1358.68 3120.84 1399.9 3061.07 1395.4 3044.27 1368.13"/><polygon class="cls-2" points="3618.62 1863.78 3547.05 1915.92 3471.26 1865.52 3618.62 1863.78"/><polygon class="cls-2" points="3439.59 1322.75 3363.54 1374.15 3398.43 1374.15 3439.59 1322.75"/><polygon class="cls-2" points="3273.37 1865.52 3199.92 1915.92 3157.35 1865.52 3273.37 1865.52"/><text class="cls-11" transform="matrix(1, 0, 0, 1, 3078.09, 1865.52)">K</text><text class="cls-12" transform="matrix(1, 0, 0, 1, 2547.68, 1911.63)">C</text><text class="cls-12" transform="matrix(1, 0, 0, 1, 2547.68, 1911.63)">C</text><text class="cls-13" transform="matrix(1, 0, 0, 1, 2600.82, 1865.52)">C</text><text class="cls-14" transform="translate(2120.9 1903.14)">A</text><polygon class="cls-2" points="2359.15 1318.06 2305.72 1350.62 2337.61 1374.17 2362.99 1364.65 2366.67 1322.07 2359.15 1318.06"/><polygon class="cls-2" points="2272.7 1903.14 2326.03 1870.63 2272.7 1870.63 2272.7 1903.14"/><polygon class="cls-2" points="2689.88 1870.63 2636.2 1903.14 2606.02 1870.63 2689.88 1870.63"/><text class="cls-15" transform="translate(2174.56 1870.63)">A</text><text class="cls-16" transform="translate(1623.49 1908.94)">H</text><polygon class="cls-2" points="1860.09 1867.97 1808.86 1908.94 1808.86 1867.97 1860.09 1867.97"/><polygon class="cls-2" points="2173.51 1867.97 2122.88 1908.57 2122.88 1867.97 2173.51 1867.97"/><polygon class="cls-2" points="1667.11 1394.2 1719.73 1351.99 1719.73 1394.2 1667.11 1394.2"/><polygon class="cls-2" points="1982.45 1395.09 2035.83 1351.99 2035.83 1395.09 1982.45 1395.09"/><text class="cls-17" transform="translate(1674.97 1867.97)">H</text><path class="cls-18" d="M33.32,1613.55v691.64a19.41,19.41,0,0,0,5.67,13.7L528.05,2808a19.39,19.39,0,0,0,13.7,5.67h691.64a19.39,19.39,0,0,0,13.7-5.67l489.06-489.06a19.41,19.41,0,0,0,5.67-13.7V1613.55a19.38,19.38,0,0,0-5.67-13.7l-489.06-489.06a19.4,19.4,0,0,0-13.7-5.68H541.75a19.4,19.4,0,0,0-13.7,5.68L39,1599.85A19.38,19.38,0,0,0,33.32,1613.55Z" transform="translate(-32.82 -1002.82)"/><path class="cls-19" d="M166.12,1507.19v676.69a19.36,19.36,0,0,0,5.68,13.7l478.49,478.49a19.38,19.38,0,0,0,13.7,5.67h676.69a19.38,19.38,0,0,0,13.7-5.67l478.49-478.49a19.36,19.36,0,0,0,5.68-13.7V1507.19a19.34,19.34,0,0,0-5.68-13.7L1354.38,1015a19.38,19.38,0,0,0-13.7-5.67H664a19.38,19.38,0,0,0-13.7,5.67L171.8,1493.49A19.34,19.34,0,0,0,166.12,1507.19Z" transform="translate(-32.82 -1002.82)"/><path class="cls-18" d="M322.46,1571.94v547.18a19.38,19.38,0,0,0,5.67,13.7l386.92,386.91a19.39,19.39,0,0,0,13.7,5.68h547.17a19.39,19.39,0,0,0,13.7-5.68l386.91-386.91a19.34,19.34,0,0,0,5.68-13.7V1571.94a19.38,19.38,0,0,0-5.68-13.7l-386.91-386.91a19.38,19.38,0,0,0-13.7-5.67H728.75a19.38,19.38,0,0,0-13.7,5.67L328.13,1558.24A19.41,19.41,0,0,0,322.46,1571.94Z" transform="translate(-32.82 -1002.82)"/><rect class="cls-20" x="581.43" y="582.93" width="74.68" height="74.68"/><rect class="cls-20" x="656.11" y="582.93" width="74.68" height="74.68"/><rect class="cls-20" x="730.79" y="732.29" width="74.68" height="74.68"/><rect class="cls-20" x="730.79" y="657.61" width="74.68" height="74.68"/><rect class="cls-20" x="670.81" y="1085.02" width="74.68" height="74.68"/><rect class="cls-20" x="745.49" y="1159.69" width="74.68" height="74.68"/><rect class="cls-20" x="820.16" y="1234.37" width="74.68" height="74.68"/><rect class="cls-20" x="894.84" y="1234.37" width="74.68" height="74.68"/><rect class="cls-20" x="969.52" y="1234.37" width="74.68" height="74.68"/><rect class="cls-20" x="1044.19" y="1234.37" width="74.68" height="74.68"/><rect class="cls-20" x="1118.87" y="1159.69" width="74.68" height="74.68"/><rect class="cls-20" x="1193.55" y="1085.02" width="74.68" height="74.68"/><rect class="cls-20" x="581.43" y="657.61" width="74.68" height="74.68"/><rect class="cls-20" x="656.11" y="732.29" width="74.68" height="74.68"/><rect class="cls-20" x="730.79" y="582.93" width="74.68" height="74.68"/><rect class="cls-20" x="581.43" y="732.29" width="74.68" height="74.68"/><rect class="cls-20" x="1156.61" y="582.93" width="74.68" height="74.68"/><rect class="cls-20" x="1231.28" y="657.61" width="74.68" height="74.68"/><rect class="cls-20" x="1305.96" y="732.29" width="74.68" height="74.68"/><rect class="cls-20" x="1305.96" y="582.93" width="74.68" height="74.68"/><rect class="cls-20" x="1156.61" y="732.29" width="74.68" height="74.68"/><path d="M1742.27,2348.32" transform="translate(-32.82 -1002.82)"/></svg>